<svg xmlns="http://www.w3.org/2000/svg" width="1400" height="900" viewBox="0 0 1400 900">
  <defs>
    <style>
      .title{font:700 28px Arial, sans-serif; fill:#0f172a}
      .label{font:600 16px Arial, sans-serif; fill:#0f172a}
      .small{font:500 13px Arial, sans-serif; fill:#334155}
      .box{fill:#ffffff;stroke:#1e293b;stroke-width:2}
      .cloud{fill:#f0f9ff;stroke:#94a3b8;stroke-width:2}
      .vpc{fill:#ecfdf5;stroke:#22c55e;stroke-width:2}
      .pub{fill:#ffffff;stroke:#10b981;stroke-width:2}
      .priv{fill:#ffffff;stroke:#8b5cf6;stroke-width:2}
      .mon{fill:#ffffff;stroke:#f59e0b;stroke-width:2}
      .arrow{stroke:#0f172a;stroke-width:2;fill:none;marker-end:url(#a)}
    </style>
    <marker id="a" markerWidth="10" markerHeight="7" refX="9" refY="3.5" orient="auto">
      <polygon points="0 0, 10 3.5, 0 7" fill="#0f172a" />
    </marker>
  </defs>

  <text x="420" y="50" class="title">Working Title - AWS Architecture</text>

  <!-- CI/CD control plane -->
  <rect x="40" y="120" width="260" height="90" class="box"/>
  <text x="70" y="155" class="label">GitHub Actions</text>
  <text x="70" y="180" class="small">CI + CD pipeline</text>

  <rect x="40" y="240" width="260" height="70" class="box"/>
  <text x="70" y="282" class="label">Terraform</text>

  <rect x="40" y="340" width="260" height="70" class="box"/>
  <text x="70" y="382" class="label">Ansible</text>

  <rect x="40" y="440" width="260" height="70" class="box"/>
  <text x="70" y="482" class="label">Amazon ECR (wt)</text>

  <!-- AWS cloud -->
  <rect x="350" y="90" width="1000" height="760" rx="10" class="cloud"/>
  <text x="380" y="125" class="label">AWS Cloud (us-east-1)</text>

  <!-- VPC -->
  <rect x="390" y="140" width="920" height="670" rx="10" class="vpc"/>
  <text x="420" y="175" class="label">VPC</text>

  <!-- Public subnet 1 -->
  <rect x="430" y="210" width="380" height="280" class="pub"/>
  <text x="450" y="240" class="label">Public Subnet 1 (App)</text>

  <rect x="470" y="280" width="300" height="150" class="box"/>
  <text x="495" y="320" class="label">App EC2</text>
  <text x="495" y="345" class="small">Flask container</text>
  <text x="495" y="368" class="small">Port 5000</text>

  <!-- Public subnet 2 -->
  <rect x="860" y="210" width="410" height="360" class="mon"/>
  <text x="880" y="240" class="label">Public Subnet 2 (Monitoring)</text>

  <rect x="900" y="280" width="330" height="240" class="box"/>
  <text x="925" y="315" class="label">Monitoring EC2</text>
  <text x="925" y="345" class="small">Prometheus :9090</text>
  <text x="925" y="370" class="small">Grafana :3000</text>
  <text x="925" y="395" class="small">Alertmanager :9093</text>

  <!-- Private subnets / RDS -->
  <rect x="430" y="530" width="380" height="230" class="priv"/>
  <text x="450" y="560" class="label">Private Subnets (DB)</text>

  <rect x="500" y="600" width="240" height="110" class="box"/>
  <text x="525" y="645" class="label">RDS PostgreSQL</text>

  <!-- Slack external -->
  <rect x="1120" y="640" width="190" height="90" class="box"/>
  <text x="1175" y="692" class="label">Slack</text>

  <!-- Flows -->
  <path d="M300 165 L470 320" class="arrow"/>
  <text x="315" y="150" class="small">deploy</text>

  <path d="M300 275 L470 280" class="arrow"/>
  <text x="320" y="265" class="small">provision infra</text>

  <path d="M300 375 L470 360" class="arrow"/>
  <text x="325" y="365" class="small">configure hosts</text>

  <path d="M300 475 L470 395" class="arrow"/>
  <text x="330" y="455" class="small">push/pull image</text>

  <path d="M770 350 L900 350" class="arrow"/>
  <text x="790" y="335" class="small">metrics scrape</text>

  <path d="M620 430 L620 600" class="arrow"/>
  <text x="635" y="515" class="small">SQL 5432</text>

  <path d="M1230 520 L1230 640" class="arrow"/>
  <text x="1240" y="585" class="small">alerts</text>
</svg>
